<svg width="133" height="103" viewBox="0 0 133 103" fill="none" xmlns="http://www.w3.org/2000/svg">
<path d="M34.188 0.250552L34.1909 0.250523C34.5466 0.247042 34.9025 0.260933 35.2571 0.292195C35.3937 0.304238 35.5143 0.204025 35.5278 0.067904C36.0844 0.129569 36.6371 0.233234 37.1808 0.3789C37.1439 0.510602 37.2198 0.647811 37.3514 0.686282C38.0296 0.88449 38.6917 1.15021 39.3272 1.48343C39.4486 1.54711 39.5985 1.50105 39.6634 1.38064C40.1493 1.6498 40.6191 1.95832 41.0678 2.30619C40.9828 2.41331 40.9996 2.5692 41.1061 2.65565C41.3796 2.87777 41.6446 3.11532 41.9001 3.36829L42.6529 4.11384C42.751 4.211 42.9093 4.21023 43.0064 4.11212L44.1568 5.25138C44.0597 5.34948 44.0604 5.50777 44.1585 5.60493L45.6642 7.09602C45.7623 7.19317 45.9206 7.19241 46.0177 7.0943L47.1681 8.23356C47.071 8.33166 47.0718 8.48995 47.1699 8.58711L47.9227 9.33265C48.2579 9.66466 48.5663 10.013 48.8479 10.3751C48.8545 10.3836 48.8617 10.3917 48.8693 10.3993L49.635 11.1576C49.7331 11.2547 49.8914 11.254 49.9885 11.1559L51.1646 12.3206C51.0675 12.4187 51.0683 12.577 51.1664 12.6741L52.6977 14.1907C52.7958 14.2878 52.9541 14.2871 53.0513 14.1889L54.2274 15.3537C54.1302 15.4518 54.131 15.6101 54.2291 15.7072L55.7604 17.2238C55.8585 17.3209 56.0168 17.3201 56.114 17.222L57.2901 18.3868C57.1929 18.4849 57.1937 18.6432 57.2918 18.7403L58.0575 19.4986C58.0624 19.5034 58.0675 19.5081 58.0728 19.5125C58.074 19.5135 58.0752 19.5146 58.0765 19.5156C58.3604 19.7445 58.6353 19.99 58.9 20.2521L59.6528 20.9976C59.7509 21.0948 59.9092 21.094 60.0063 20.9959L61.1567 22.1352C61.0596 22.2333 61.0603 22.3916 61.1584 22.4887L62.6641 23.9798C62.7622 24.077 62.9205 24.0762 63.0176 23.9781L64.168 25.1173C64.0709 25.2154 64.0716 25.3737 64.1697 25.4709L64.9226 26.2164C65.1735 26.4649 65.4094 26.7226 65.6302 26.9883C65.7178 27.0938 65.8739 27.1088 65.98 27.0226C66.3248 27.4572 66.6315 27.9119 66.9 28.382C66.7805 28.4485 66.7364 28.5989 66.8016 28.7195C67.137 29.3395 67.4058 29.9855 67.6082 30.6473C67.6483 30.7784 67.7864 30.8526 67.9176 30.814C68.0662 31.3432 68.1736 31.8814 68.24 32.4235C68.104 32.4385 68.0052 32.5602 68.0187 32.6966C68.0875 33.3915 68.0875 34.0919 68.0187 34.7869C68.0052 34.9233 68.104 35.045 68.24 35.06C68.1736 35.6021 68.0662 36.1402 67.9176 36.6694C67.7864 36.6309 67.6483 36.7051 67.6082 36.8362C67.4058 37.4979 67.137 38.1439 66.8016 38.764C66.7364 38.8846 66.7805 39.035 66.9 39.1014C66.6315 39.5716 66.3248 40.0262 65.9801 40.4609C65.8739 40.3746 65.7178 40.3897 65.6302 40.4951C65.4094 40.7609 65.1735 41.0185 64.9226 41.267L64.2475 41.9356C64.1494 42.0327 64.1486 42.191 64.2458 42.2891L63.2509 43.2744C63.1537 43.1763 62.9954 43.1755 62.8973 43.2727L61.5471 44.6098C61.449 44.707 61.4483 44.8652 61.5454 44.9634L60.5505 45.9486C60.4534 45.8505 60.2951 45.8498 60.197 45.9469L58.8468 47.284C58.7487 47.3812 58.7479 47.5395 58.8451 47.6376L57.8502 48.6229C57.753 48.5248 57.5947 48.524 57.4966 48.6211L56.1464 49.9583C56.0483 50.0554 56.0476 50.2137 56.1447 50.3118L55.1498 51.2971C55.0527 51.199 54.8944 51.1982 54.7963 51.2954L53.4461 52.6325C53.348 52.7296 53.3472 52.8879 53.4444 52.986L52.4495 53.9713C52.3523 53.8732 52.194 53.8724 52.0959 53.9696L50.7457 55.3067C50.6476 55.4039 50.6469 55.5622 50.744 55.6603L49.7491 56.6455C49.652 56.5474 49.4937 56.5467 49.3956 56.6438L48.7205 57.3124C48.7138 57.319 48.7075 57.326 48.7016 57.3333C48.7008 57.3343 48.6999 57.3354 48.6991 57.3365C48.4185 57.697 48.1112 58.0439 47.7773 58.3746L47.0245 59.1201C46.9264 59.2173 46.9256 59.3756 47.0228 59.4737L45.8724 60.6129C45.7752 60.5148 45.6169 60.514 45.5188 60.6112L44.0132 62.1023C43.9151 62.1994 43.9143 62.3577 44.0114 62.4558L42.8611 63.5951C42.7639 63.497 42.6056 63.4962 42.5075 63.5934L41.7547 64.3389C41.5018 64.5893 41.2396 64.8246 40.9691 65.0448C40.8627 65.1313 40.846 65.2872 40.9312 65.3943C40.4887 65.738 40.0258 66.0434 39.5469 66.3105C39.4817 66.1903 39.3317 66.1447 39.2104 66.2087C38.5824 66.5405 37.928 66.8061 37.2578 67.0057C37.1264 67.0448 37.0512 67.1824 37.0887 67.3139C36.5529 67.4604 36.008 67.5659 35.4592 67.6305C35.4447 67.4945 35.3234 67.3951 35.1869 67.4081C34.8361 67.4415 34.4839 67.4579 34.1318 67.4572L34.1289 67.4572C33.7732 67.4607 33.4174 67.4468 33.0628 67.4155C32.9262 67.4035 32.8056 67.5037 32.7921 67.6398C32.2355 67.5781 31.6828 67.4744 31.1392 67.3288C31.1761 67.197 31.1002 67.0598 30.9686 67.0214C30.2905 66.8231 29.6284 66.5574 28.9929 66.2242C28.8715 66.1605 28.7216 66.2066 28.6568 66.327C28.1708 66.0578 27.7011 65.7494 27.2524 65.4015C27.3375 65.2944 27.3206 65.1385 27.2142 65.052C26.9407 64.8299 26.6757 64.5924 26.4202 64.3394L25.6674 63.5939C25.5693 63.4967 25.411 63.4975 25.3139 63.5956L24.1635 62.4563C24.2606 62.3582 24.2599 62.2 24.1618 62.1028L22.6561 60.6117C22.558 60.5146 22.3997 60.5153 22.3026 60.6134L21.1522 59.4742C21.2493 59.3761 21.2486 59.2178 21.1505 59.1206L20.3976 58.3751C20.0624 58.0431 19.754 57.6947 19.4724 57.3326C19.4658 57.3241 19.4587 57.316 19.451 57.3084L18.6853 56.5502C18.5872 56.453 18.4289 56.4538 18.3318 56.5519L17.1557 55.3872C17.2528 55.2891 17.2521 55.1308 17.154 55.0336L15.6226 53.5171C15.5245 53.4199 15.3662 53.4207 15.269 53.5188L14.0929 52.3541C14.1901 52.256 14.1893 52.0977 14.0912 52.0005L12.5599 50.484C12.4618 50.3868 12.3035 50.3876 12.2063 50.4857L11.0302 49.321C11.1274 49.2229 11.1266 49.0646 11.0285 48.9674L10.2628 48.2091C10.2579 48.2043 10.2528 48.1996 10.2475 48.1952C10.2463 48.1942 10.2451 48.1932 10.2438 48.1922C9.9599 47.9632 9.68498 47.7177 9.42036 47.4557L8.66753 46.7101C8.56943 46.613 8.41114 46.6137 8.31399 46.7118L7.1636 45.5726C7.26075 45.4745 7.25998 45.3162 7.16188 45.219L5.65622 43.7279C5.55812 43.6308 5.39983 43.6315 5.30267 43.7297L4.15229 42.5904C4.24944 42.4923 4.24867 42.334 4.15057 42.2368L3.39774 41.4913C3.14682 41.2428 2.91095 40.9851 2.69011 40.7194C2.60247 40.614 2.44641 40.5989 2.34026 40.6851C1.99551 40.2505 1.68885 39.7959 1.42027 39.3257C1.53981 39.2593 1.58392 39.1089 1.5187 38.9883C1.18335 38.3682 0.914487 37.7222 0.712099 37.0605C0.671999 36.9294 0.533898 36.8552 0.402687 36.8937C0.254151 36.3645 0.146708 35.8264 0.0803557 35.2843C0.216281 35.2692 0.315144 35.1476 0.301628 35.0111C0.232791 34.3162 0.232791 33.6158 0.301628 32.9209C0.315144 32.7844 0.216281 32.6628 0.0803556 32.6478C0.146708 32.1056 0.254151 31.5675 0.402687 31.0383C0.533898 31.0768 0.672 31.0027 0.712099 30.8716C0.914488 30.2098 1.18335 29.5638 1.5187 28.9438C1.58392 28.8232 1.53981 28.6727 1.42028 28.6063C1.68885 28.1361 1.99551 27.6815 2.34026 27.2469C2.44641 27.3331 2.60247 27.318 2.69011 27.2126C2.91095 26.9469 3.14682 26.6892 3.39774 26.4407L4.07283 25.7722C4.17094 25.675 4.1717 25.5167 4.07455 25.4186L5.06946 24.4333C5.16661 24.5314 5.3249 24.5322 5.42301 24.435L6.77318 23.0979C6.87129 23.0008 6.87206 22.8425 6.7749 22.7444L7.76981 21.7591C7.86696 21.8572 8.02525 21.858 8.12336 21.7608L9.47353 20.4237C9.57164 20.3265 9.57241 20.1683 9.47525 20.0702L10.4702 19.0849C10.5673 19.183 10.7256 19.1837 10.8237 19.0866L12.1739 17.7495C12.272 17.6523 12.2728 17.494 12.1756 17.3959L13.1705 16.4106C13.2677 16.5087 13.426 16.5095 13.5241 16.4124L14.8742 15.0752C14.9723 14.9781 14.9731 14.8198 14.876 14.7217L15.8709 13.7364C15.968 13.8345 16.1263 13.8353 16.2244 13.7381L17.5746 12.401C17.6727 12.3039 17.6735 12.1456 17.5763 12.0475L18.5712 11.0622C18.6684 11.1603 18.8267 11.1611 18.9248 11.0639L19.5998 10.3953C19.6065 10.3887 19.6128 10.3818 19.6187 10.3744C19.6196 10.3734 19.6204 10.3723 19.6212 10.3713C19.9019 10.0107 20.2091 9.66383 20.543 9.33316L21.2958 8.58762C21.3939 8.49046 21.3947 8.33217 21.2976 8.23407L22.4479 7.09481C22.5451 7.19291 22.7034 7.19368 22.8015 7.09653L24.3071 5.60544C24.4053 5.50829 24.406 5.35 24.3089 5.25189L25.4593 4.11263C25.5564 4.21074 25.7147 4.21151 25.8128 4.11435L26.5656 3.36881C26.8185 3.11843 27.0807 2.88317 27.3512 2.66301C27.4576 2.57645 27.4742 2.42054 27.3891 2.31351C27.8315 1.96982 28.2944 1.66443 28.7732 1.39734C28.8384 1.51755 28.9885 1.56315 29.1097 1.49911C29.7377 1.16736 30.392 0.901703 31.0622 0.702152C31.1936 0.66302 31.2688 0.525433 31.2313 0.393919C31.7671 0.247478 32.3119 0.141922 32.8607 0.0772483C32.8751 0.213272 32.9964 0.312642 33.133 0.299648C33.4837 0.266259 33.8359 0.249888 34.188 0.250552Z" stroke="#878787" stroke-width="0.5" stroke-linecap="round" stroke-linejoin="round" stroke-dasharray="2 2"/>
<path d="M34.188 34.9127L34.1909 34.9126C34.5466 34.9092 34.9025 34.923 35.2571 34.9543C35.3937 34.9663 35.5143 34.8661 35.5278 34.73C36.0844 34.7917 36.6371 34.8953 37.1808 35.041C37.1439 35.1727 37.2198 35.3099 37.3514 35.3484C38.0296 35.5466 38.6917 35.8123 39.3272 36.1455C39.4486 36.2092 39.5985 36.1632 39.6634 36.0428C40.1493 36.3119 40.6191 36.6204 41.0678 36.9683C40.9828 37.0754 40.9996 37.2313 41.1061 37.3178C41.3796 37.5399 41.6446 37.7774 41.9001 38.0304L42.6529 38.7759C42.751 38.8731 42.9093 38.8723 43.0064 38.7742L44.1568 39.9135C44.0597 40.0116 44.0604 40.1699 44.1585 40.267L45.6642 41.7581C45.7623 41.8553 45.9206 41.8545 46.0177 41.7564L47.1681 42.8957C47.071 42.9938 47.0718 43.1521 47.1699 43.2492L47.9227 43.9948C48.2579 44.3268 48.5663 44.6751 48.8479 45.0372C48.8545 45.0457 48.8617 45.0538 48.8693 45.0614L49.635 45.8197C49.7331 45.9168 49.8914 45.9161 49.9885 45.818L51.1646 46.9827C51.0675 47.0808 51.0683 47.2391 51.1664 47.3362L52.6977 48.8528C52.7958 48.9499 52.9541 48.9492 53.0513 48.8511L54.2274 50.0158C54.1302 50.1139 54.131 50.2722 54.2291 50.3693L55.7604 51.8859C55.8585 51.983 56.0168 51.9823 56.114 51.8842L57.2901 53.0489C57.1929 53.147 57.1937 53.3053 57.2918 53.4024L58.0575 54.1607C58.0624 54.1656 58.0675 54.1702 58.0728 54.1746C58.074 54.1757 58.0752 54.1767 58.0765 54.1777C58.3604 54.4066 58.6353 54.6521 58.9 54.9142L59.6528 55.6597C59.7509 55.7569 59.9092 55.7561 60.0063 55.658L61.1567 56.7973C61.0596 56.8954 61.0603 57.0537 61.1584 57.1508L62.6641 58.6419C62.7622 58.7391 62.9205 58.7383 63.0176 58.6402L64.168 59.7794C64.0709 59.8776 64.0716 60.0358 64.1697 60.133L64.9226 60.8785C65.1735 61.127 65.4094 61.3847 65.6302 61.6504C65.7178 61.7559 65.8739 61.7709 65.98 61.6847C66.3248 62.1193 66.6315 62.574 66.9 63.0441C66.7805 63.1106 66.7364 63.261 66.8016 63.3816C67.137 64.0016 67.4058 64.6477 67.6082 65.3094C67.6483 65.4405 67.7864 65.5147 67.9176 65.4762C68.0662 66.0053 68.1736 66.5435 68.24 67.0856C68.104 67.1006 68.0052 67.2223 68.0187 67.3587C68.0875 68.0536 68.0875 68.754 68.0187 69.449C68.0052 69.5854 68.104 69.7071 68.24 69.7221C68.1736 70.2642 68.0662 70.8023 67.9176 71.3315C67.7864 71.293 67.6483 71.3672 67.6082 71.4983C67.4058 72.16 67.137 72.806 66.8016 73.4261C66.7364 73.5467 66.7805 73.6971 66.9 73.7635C66.6315 74.2337 66.3248 74.6883 65.9801 75.123C65.8739 75.0367 65.7178 75.0518 65.6302 75.1573C65.4094 75.423 65.1735 75.6806 64.9226 75.9291L64.2475 76.5977C64.1494 76.6948 64.1486 76.8531 64.2458 76.9512L63.2509 77.9365C63.1537 77.8384 62.9954 77.8376 62.8973 77.9348L61.5471 79.2719C61.449 79.3691 61.4483 79.5274 61.5454 79.6255L60.5505 80.6107C60.4534 80.5126 60.2951 80.5119 60.197 80.609L58.8468 81.9461C58.7487 82.0433 58.7479 82.2016 58.8451 82.2997L57.8502 83.285C57.753 83.1869 57.5947 83.1861 57.4966 83.2833L56.1464 84.6204C56.0483 84.7175 56.0476 84.8758 56.1447 84.9739L55.1498 85.9592C55.0527 85.8611 54.8944 85.8603 54.7963 85.9575L53.4461 87.2946C53.348 87.3917 53.3472 87.55 53.4444 87.6481L52.4495 88.6334C52.3523 88.5353 52.194 88.5345 52.0959 88.6317L50.7457 89.9688C50.6476 90.066 50.6469 90.2243 50.744 90.3224L49.7491 91.3077C49.652 91.2095 49.4937 91.2088 49.3956 91.3059L48.7205 91.9745C48.7138 91.9811 48.7075 91.9881 48.7016 91.9954C48.7008 91.9964 48.6999 91.9975 48.6991 91.9986C48.4185 92.3591 48.1112 92.706 47.7773 93.0367L47.0245 93.7822C46.9264 93.8794 46.9256 94.0377 47.0228 94.1358L45.8724 95.275C45.7752 95.1769 45.6169 95.1762 45.5188 95.2733L44.0132 96.7644C43.9151 96.8616 43.9143 97.0198 44.0114 97.1179L42.8611 98.2572C42.7639 98.1591 42.6056 98.1583 42.5075 98.2555L41.7547 99.001C41.5019 99.2514 41.2396 99.4867 40.9691 99.7068C40.8628 99.7934 40.8461 99.9493 40.9313 100.056C40.4888 100.4 40.0259 100.705 39.5471 100.972C39.4819 100.852 39.3319 100.807 39.2107 100.871C38.5827 101.202 37.9284 101.468 37.2582 101.668C37.1267 101.707 37.0515 101.844 37.0891 101.976C36.5533 102.122 36.0085 102.228 35.4597 102.293C35.4453 102.157 35.324 102.057 35.1874 102.07C34.8367 102.104 34.4846 102.12 34.1325 102.119L34.1295 102.119C33.7738 102.123 33.4179 102.109 33.0634 102.078C32.9267 102.066 32.8061 102.166 32.7926 102.302C32.236 102.24 31.6832 102.137 31.1395 101.991C31.1765 101.859 31.1006 101.722 30.9689 101.684C30.2908 101.485 29.6286 101.22 28.9932 100.886C28.8717 100.823 28.7219 100.869 28.657 100.989C28.171 100.72 27.7012 100.412 27.2525 100.064C27.3375 99.9565 27.3207 99.8007 27.2143 99.7142C26.9408 99.4921 26.6757 99.2545 26.4202 99.0015L25.6674 98.256C25.5693 98.1588 25.411 98.1596 25.3139 98.2577L24.1635 97.1185C24.2606 97.0204 24.2599 96.8621 24.1618 96.7649L22.6561 95.2738C22.558 95.1767 22.3997 95.1774 22.3026 95.2755L21.1522 94.1363C21.2493 94.0382 21.2486 93.8799 21.1505 93.7827L20.3976 93.0372C20.0624 92.7052 19.754 92.3568 19.4724 91.9947C19.4658 91.9862 19.4586 91.9781 19.451 91.9705L18.6853 91.2122C18.5872 91.1151 18.4289 91.1159 18.3318 91.214L17.1557 90.0493C17.2528 89.9511 17.252 89.7929 17.1539 89.6957L15.6226 88.1792C15.5245 88.082 15.3662 88.0828 15.269 88.1809L14.0929 87.0162C14.1901 86.9181 14.1893 86.7598 14.0912 86.6626L12.5599 85.1461C12.4618 85.0489 12.3035 85.0497 12.2063 85.1478L11.0302 83.9831C11.1274 83.885 11.1266 83.7267 11.0285 83.6295L10.2628 82.8713C10.2613 82.8698 10.2598 82.8683 10.2582 82.8668C10.2552 82.8639 10.252 82.8611 10.2488 82.8583C10.2471 82.857 10.2455 82.8556 10.2438 82.8543C9.95991 82.6253 9.68498 82.3798 9.42036 82.1178L8.66753 81.3722C8.56943 81.2751 8.41114 81.2758 8.31399 81.3739L7.1636 80.2347C7.26075 80.1366 7.25998 79.9783 7.16188 79.8811L5.65622 78.39C5.55812 78.2929 5.39983 78.2937 5.30267 78.3918L4.15229 77.2525C4.24944 77.1544 4.24867 76.9961 4.15057 76.899L3.39774 76.1534C3.14682 75.9049 2.91095 75.6473 2.69011 75.3815C2.60247 75.2761 2.44641 75.261 2.34026 75.3472C1.99551 74.9126 1.68885 74.458 1.42027 73.9878C1.53981 73.9214 1.58392 73.771 1.5187 73.6504C1.18335 73.0303 0.914487 72.3843 0.712099 71.7226C0.671999 71.5915 0.533898 71.5173 0.402687 71.5558C0.254151 71.0266 0.146708 70.4885 0.0803557 69.9464C0.216281 69.9314 0.315144 69.8097 0.301628 69.6732C0.232791 68.9783 0.232791 68.2779 0.301628 67.583C0.315144 67.4465 0.216281 67.3249 0.0803556 67.3099C0.146708 66.7677 0.254151 66.2296 0.402687 65.7004C0.533898 65.7389 0.672 65.6648 0.712099 65.5337C0.914488 64.8719 1.18335 64.2259 1.5187 63.6059C1.58392 63.4853 1.53981 63.3348 1.42028 63.2684C1.68885 62.7982 1.99551 62.3436 2.34026 61.909C2.44641 61.9952 2.60247 61.9801 2.69011 61.8747C2.91095 61.609 3.14682 61.3513 3.39774 61.1028L4.07283 60.4343C4.17094 60.3371 4.1717 60.1788 4.07455 60.0807L5.06946 59.0954C5.16661 59.1935 5.3249 59.1943 5.42301 59.0971L6.77318 57.76C6.87129 57.6629 6.87206 57.5046 6.7749 57.4065L7.76981 56.4212C7.86696 56.5193 8.02525 56.5201 8.12336 56.4229L9.47353 55.0858C9.57164 54.9887 9.57241 54.8304 9.47525 54.7323L10.4702 53.747C10.5673 53.8451 10.7256 53.8458 10.8237 53.7487L12.1739 52.4116C12.272 52.3144 12.2728 52.1561 12.1756 52.058L13.1705 51.0727C13.2677 51.1709 13.426 51.1716 13.5241 51.0745L14.8742 49.7374C14.9723 49.6402 14.9731 49.4819 14.876 49.3838L15.8709 48.3985C15.968 48.4966 16.1263 48.4974 16.2244 48.4002L17.5746 47.0631C17.6727 46.966 17.6735 46.8077 17.5763 46.7096L18.5712 45.7243C18.6684 45.8224 18.8267 45.8232 18.9248 45.726L19.5998 45.0575C19.6065 45.0508 19.6128 45.0439 19.6187 45.0365C19.6196 45.0355 19.6204 45.0344 19.6212 45.0334C19.9019 44.6728 20.2091 44.3259 20.543 43.9953L21.2958 43.2497C21.3939 43.1526 21.3947 42.9943 21.2976 42.8962L22.4479 41.7569C22.5451 41.855 22.7034 41.8558 22.8015 41.7586L24.3071 40.2675C24.4053 40.1704 24.406 40.0121 24.3089 39.914L25.4593 38.7747C25.5564 38.8728 25.7147 38.8736 25.8128 38.7765L26.5656 38.0309C26.8185 37.7805 27.0807 37.5453 27.3512 37.3251C27.4576 37.2386 27.4742 37.0827 27.3891 36.9756C27.8315 36.6319 28.2944 36.3265 28.7732 36.0595C28.8384 36.1797 28.9885 36.2253 29.1097 36.1612C29.7377 35.8295 30.392 35.5638 31.0622 35.3643C31.1936 35.3251 31.2688 35.1875 31.2313 35.056C31.7671 34.9096 32.3119 34.804 32.8607 34.7394C32.8751 34.8754 32.9964 34.9748 33.133 34.9618C33.4837 34.9284 33.8359 34.912 34.188 34.9127Z" stroke="#878787" stroke-width="0.5" stroke-linecap="round" stroke-linejoin="round" stroke-dasharray="2 2"/>
<path d="M79.188 17.0865L79.1909 17.0865C79.5466 17.083 79.9025 17.0969 80.2571 17.1281C80.3937 17.1402 80.5143 17.04 80.5278 16.9038C81.0844 16.9655 81.6371 17.0692 82.1808 17.2148C82.1439 17.3465 82.2198 17.4837 82.3514 17.5222C83.0296 17.7204 83.6917 17.9862 84.3272 18.3194C84.4486 18.383 84.5985 18.337 84.6634 18.2166C85.1493 18.4857 85.6191 18.7943 86.0678 19.1421C85.9828 19.2492 85.9996 19.4051 86.1061 19.4916C86.3796 19.7137 86.6446 19.9513 86.9001 20.2042L87.6529 20.9498C87.751 21.0469 87.9093 21.0462 88.0064 20.9481L89.1568 22.0873C89.0597 22.1854 89.0604 22.3437 89.1585 22.4409L90.6642 23.932C90.7623 24.0291 90.9206 24.0283 91.0177 23.9302L92.1681 25.0695C92.071 25.1676 92.0718 25.3259 92.1699 25.423L92.9227 26.1686C93.2579 26.5006 93.5663 26.849 93.8479 27.2111C93.8545 27.2196 93.8617 27.2276 93.8693 27.2352L94.635 27.9935C94.7331 28.0907 94.8914 28.0899 94.9885 27.9918L96.1646 29.1565C96.0675 29.2546 96.0683 29.4129 96.1664 29.5101L97.6977 31.0266C97.7958 31.1238 97.9541 31.123 98.0513 31.0249L99.2274 32.1896C99.1302 32.2877 99.131 32.446 99.2291 32.5432L100.76 34.0597C100.859 34.1569 101.017 34.1561 101.114 34.058L102.29 35.2227C102.193 35.3208 102.194 35.4791 102.292 35.5762L103.057 36.3345C103.062 36.3394 103.067 36.344 103.073 36.3485C103.074 36.3495 103.075 36.3505 103.076 36.3515C103.36 36.5805 103.635 36.826 103.9 37.088L104.653 37.8336C104.751 37.9307 104.909 37.9299 105.006 37.8318L106.157 38.9711C106.06 39.0692 106.06 39.2275 106.158 39.3246L107.664 40.8157C107.762 40.9129 107.92 40.9121 108.018 40.814L109.168 41.9533C109.071 42.0514 109.072 42.2097 109.17 42.3068L109.923 43.0524C110.173 43.3009 110.409 43.5585 110.63 43.8242C110.718 43.9297 110.874 43.9448 110.98 43.8585C111.325 44.2932 111.631 44.7478 111.9 45.218C111.781 45.2844 111.736 45.4348 111.802 45.5554C112.137 46.1755 112.406 46.8215 112.608 47.4832C112.648 47.6143 112.786 47.6885 112.918 47.65C113.066 48.1792 113.174 48.7173 113.24 49.2594C113.104 49.2744 113.005 49.3961 113.019 49.5325C113.088 50.2275 113.088 50.9278 113.019 51.6228C113.005 51.7592 113.104 51.8809 113.24 51.8959C113.174 52.438 113.066 52.9762 112.918 53.5053C112.786 53.4668 112.648 53.541 112.608 53.6721C112.406 54.3338 112.137 54.9799 111.802 55.5999C111.736 55.7205 111.781 55.8709 111.9 55.9374C111.631 56.4075 111.325 56.8621 110.98 57.2968C110.874 57.2106 110.718 57.2256 110.63 57.3311C110.409 57.5968 110.173 57.8545 109.923 58.103L109.247 58.7715C109.149 58.8687 109.149 59.027 109.246 59.1251L108.251 60.1103C108.154 60.0122 107.995 60.0115 107.897 60.1086L106.547 61.4457C106.449 61.5429 106.448 61.7012 106.545 61.7993L105.551 62.7846C105.453 62.6865 105.295 62.6857 105.197 62.7829L103.847 64.12C103.749 64.2171 103.748 64.3754 103.845 64.4735L102.85 65.4588C102.753 65.3607 102.595 65.3599 102.497 65.4571L101.146 66.7942C101.048 66.8913 101.048 67.0496 101.145 67.1477L100.15 68.133C100.053 68.0349 99.8944 68.0342 99.7963 68.1313L98.4461 69.4684C98.348 69.5656 98.3472 69.7239 98.4444 69.822L97.4495 70.8073C97.3523 70.7091 97.194 70.7084 97.0959 70.8055L95.7457 72.1426C95.6476 72.2398 95.6469 72.3981 95.744 72.4962L94.7491 73.4815C94.652 73.3834 94.4937 73.3826 94.3956 73.4798L93.7205 74.1483C93.7138 74.1549 93.7075 74.1619 93.7016 74.1692C93.7008 74.1703 93.6999 74.1713 93.6991 74.1724C93.4185 74.5329 93.1112 74.8798 92.7773 75.2105L92.0245 75.9561C91.9264 76.0532 91.9256 76.2115 92.0228 76.3096L90.8724 77.4489C90.7752 77.3508 90.6169 77.35 90.5188 77.4471L89.0132 78.9382C88.9151 79.0354 88.9143 79.1937 89.0114 79.2918L87.8611 80.431C87.7639 80.3329 87.6056 80.3322 87.5075 80.4293L86.7547 81.1749C86.5018 81.4253 86.2396 81.6605 85.9691 81.8807C85.8627 81.9673 85.846 82.1232 85.9312 82.2302C85.4887 82.5739 85.0258 82.8793 84.5469 83.1464C84.4817 83.0262 84.3317 82.9806 84.2104 83.0447C83.5824 83.3764 82.928 83.6421 82.2578 83.8416C82.1264 83.8807 82.0512 84.0183 82.0887 84.1498C81.5529 84.2963 81.008 84.4018 80.4592 84.4665C80.4447 84.3305 80.3234 84.2311 80.1869 84.2441C79.8361 84.2775 79.4839 84.2938 79.1318 84.2931L79.1289 84.2932C78.7732 84.2966 78.4174 84.2827 78.0628 84.2514C77.9262 84.2394 77.8056 84.3396 77.7921 84.4757C77.2355 84.414 76.6828 84.3104 76.1392 84.1647C76.1761 84.033 76.1002 83.8958 75.9686 83.8573C75.2905 83.6591 74.6284 83.3934 73.9929 83.0602C73.8715 82.9965 73.7216 83.0425 73.6568 83.1629C73.1708 82.8938 72.7011 82.5853 72.2524 82.2374C72.3375 82.1303 72.3206 81.9744 72.2142 81.888C71.9407 81.6659 71.6757 81.4283 71.4202 81.1754L70.6674 80.4298C70.5693 80.3327 70.411 80.3334 70.3139 80.4315L69.1635 79.2923C69.2606 79.1942 69.2599 79.0359 69.1618 78.9387L67.6561 77.4476C67.558 77.3505 67.3997 77.3513 67.3026 77.4494L66.1522 76.3101C66.2493 76.212 66.2486 76.0537 66.1505 75.9566L65.3976 75.211C65.0624 74.879 64.754 74.5306 64.4724 74.1685C64.4658 74.16 64.4587 74.152 64.451 74.1444L63.6853 73.3861C63.5872 73.2889 63.4289 73.2897 63.3318 73.3878L62.1557 72.2231C62.2528 72.125 62.2521 71.9667 62.154 71.8695L60.6226 70.353C60.5245 70.2558 60.3662 70.2566 60.269 70.3547L59.0929 69.19C59.1901 69.0919 59.1893 68.9336 59.0912 68.8364L57.5599 67.3199C57.4618 67.2227 57.3035 67.2235 57.2063 67.3216L56.0302 66.1569C56.1274 66.0588 56.1266 65.9005 56.0285 65.8033L55.2628 65.0451C55.2579 65.0402 55.2528 65.0356 55.2475 65.0311C55.2463 65.0301 55.2451 65.0291 55.2438 65.0281C54.9599 64.7991 54.685 64.5537 54.4204 64.2916L53.6675 63.5461C53.5694 63.4489 53.4111 63.4497 53.314 63.5478L52.1636 62.4085C52.2608 62.3104 52.26 62.1521 52.1619 62.055L50.6562 60.5639C50.5581 60.4667 50.3998 60.4675 50.3027 60.5656L49.1523 59.4263C49.2494 59.3282 49.2487 59.1699 49.1506 59.0728L48.3977 58.3272C48.1468 58.0787 47.9109 57.8211 47.6901 57.5554C47.6025 57.4499 47.4464 57.4348 47.3403 57.5211C46.9955 57.0864 46.6888 56.6318 46.4203 56.1616C46.5398 56.0952 46.5839 55.9448 46.5187 55.8242C46.1834 55.2041 45.9145 54.5581 45.7121 53.8964C45.672 53.7653 45.5339 53.6911 45.4027 53.7296C45.2542 53.2004 45.1467 52.6623 45.0804 52.1202C45.2163 52.1052 45.3151 51.9835 45.3016 51.8471C45.2328 51.1521 45.2328 50.4518 45.3016 49.7568C45.3151 49.6204 45.2163 49.4987 45.0804 49.4837C45.1467 48.9416 45.2542 48.4035 45.4027 47.8743C45.5339 47.9128 45.672 47.8386 45.7121 47.7075C45.9145 47.0458 46.1834 46.3997 46.5187 45.7797C46.5839 45.6591 46.5398 45.5087 46.4203 45.4423C46.6888 44.9721 46.9955 44.5175 47.3403 44.0828C47.4464 44.169 47.6025 44.154 47.6901 44.0485C47.9109 43.7828 48.1468 43.5251 48.3977 43.2766L49.0728 42.6081C49.1709 42.5109 49.1717 42.3526 49.0745 42.2545L50.0695 41.2693C50.1666 41.3674 50.3249 41.3681 50.423 41.271L51.7732 39.9339C51.8713 39.8367 51.8721 39.6784 51.7749 39.5803L52.7698 38.595C52.867 38.6931 53.0253 38.6939 53.1234 38.5968L54.4735 37.2596C54.5716 37.1625 54.5724 37.0042 54.4753 36.9061L55.4702 35.9208C55.5673 36.0189 55.7256 36.0197 55.8237 35.9225L57.1739 34.5854C57.272 34.4883 57.2728 34.33 57.1756 34.2319L58.1705 33.2466C58.2677 33.3447 58.426 33.3455 58.5241 33.2483L59.8742 31.9112C59.9723 31.814 59.9731 31.6557 59.876 31.5576L60.8709 30.5723C60.968 30.6705 61.1263 30.6712 61.2244 30.5741L62.5746 29.237C62.6727 29.1398 62.6735 28.9815 62.5763 28.8834L63.5712 27.8981C63.6684 27.9962 63.8267 27.997 63.9248 27.8998L64.5998 27.2313C64.6065 27.2247 64.6128 27.2177 64.6187 27.2104C64.6196 27.2093 64.6204 27.2083 64.6212 27.2072C64.9019 26.8467 65.2091 26.4998 65.543 26.1691L66.2958 25.4236C66.3939 25.3264 66.3947 25.1681 66.2976 25.07L67.4479 23.9307C67.5451 24.0289 67.7034 24.0296 67.8015 23.9325L69.3071 22.4414C69.4053 22.3442 69.406 22.1859 69.3089 22.0878L70.4593 20.9486C70.5564 21.0467 70.7147 21.0474 70.8128 20.9503L71.5656 20.2047C71.8185 19.9544 72.0807 19.7191 72.3512 19.4989C72.4576 19.4124 72.4742 19.2565 72.3891 19.1494C72.8315 18.8058 73.2944 18.5004 73.7732 18.2333C73.8384 18.3535 73.9885 18.3991 74.1097 18.335C74.7377 18.0033 75.392 17.7376 76.0622 17.5381C76.1936 17.499 76.2688 17.3614 76.2313 17.2299C76.7671 17.0834 77.3119 16.9779 77.8607 16.9132C77.8751 17.0492 77.9964 17.1486 78.133 17.1356C78.4837 17.1022 78.8359 17.0858 79.188 17.0865Z" stroke="#878787" stroke-width="0.5" stroke-linecap="round" stroke-linejoin="round" stroke-dasharray="2 2"/>
<path d="M26.2444 65.1468C30.5402 69.4426 37.505 69.4426 41.8008 65.1468L65.0986 41.849C69.3944 37.5532 69.3944 30.5884 65.0986 26.2926L59.076 20.27C58.8053 19.9993 58.524 19.7457 58.2335 19.5092L41.9462 3.22183C37.6504 -1.07394 30.6856 -1.07394 26.3898 3.22183L20.3672 9.24444C16.0714 13.5402 16.0714 20.505 20.3672 24.8008L29.678 34.1116L20.2218 43.5678C15.9261 47.8636 15.9261 54.8284 20.2218 59.1242L26.2444 65.1468Z" fill="#448BFF"/>
<path d="M26.2444 99.1468C30.5402 103.443 37.505 103.443 41.8008 99.1468L65.0986 75.849C69.3944 71.5532 69.3944 64.5884 65.0986 60.2926L59.076 54.27C58.8053 53.9993 58.524 53.7457 58.2335 53.5092L41.9462 37.2218C37.6504 32.9261 30.6856 32.9261 26.3898 37.2218L20.3672 43.2444C16.0714 47.5402 16.0714 54.505 20.3672 58.8008L29.678 68.1116L20.2218 77.5678C15.9261 81.8636 15.9261 88.8284 20.2218 93.1242L26.2444 99.1468Z" fill="#448BFF" fill-opacity="0.8"/>
<path d="M78.643 31.4505L78.6653 31.4747L78.6888 31.4977C79.3246 32.119 80.1302 32.4034 81 32.4034C81.8698 32.4034 82.6754 32.119 83.3112 31.4977L83.3347 31.4747L83.357 31.4505C83.9672 30.7879 84.25 29.9661 84.25 29.0767C84.25 28.2003 83.9735 27.3776 83.3348 26.7402C82.712 26.0768 81.9008 25.75 81 25.75C80.0992 25.75 79.288 26.0768 78.6652 26.7402C78.0265 27.3776 77.75 28.2003 77.75 29.0767C77.75 29.9661 78.0328 30.7879 78.643 31.4505ZM81 71.25C82.2772 71.25 83.3125 70.2147 83.3125 68.9375V39.7287C83.3125 38.4515 82.2772 37.4162 81 37.4162C79.7228 37.4162 78.6875 38.4515 78.6875 39.7287V68.9375C78.6875 70.2147 79.7228 71.25 81 71.25Z" fill="#448BFF" stroke="#448BFF" stroke-width="2.5"/>
<path d="M98.0088 58.333L98.0088 58.3329L98.0052 58.3383C96.8241 60.0779 95.7097 61.7738 94.6621 63.4258C93.6821 64.9713 92.8175 66.3897 92.0694 67.6805L93.149 68.3062L92.0694 67.6805C91.8587 68.0439 91.75 68.4547 91.75 68.8702C91.75 70.1845 92.8155 71.25 94.1298 71.25H115.24C116.35 71.25 117.25 70.3499 117.25 69.2395C117.25 68.1292 116.35 67.2291 115.24 67.2291H100.684C99.1216 67.2291 98.2385 65.5768 99.0312 64.3282C100.165 62.6096 101.349 60.8609 102.583 59.082C103.818 57.3018 105.07 55.5364 106.338 53.7859C107.639 52.0361 108.89 50.3912 110.09 48.851C111.324 47.2795 112.474 45.8429 113.539 44.5406C114.516 43.3829 115.382 42.3956 116.139 41.5764L115.224 40.732L116.139 41.5764C116.526 41.1574 116.747 40.6054 116.747 40.0258C116.747 38.7689 115.728 37.75 114.471 37.75H94.6664C93.556 37.75 92.6559 38.6501 92.6559 39.7605C92.6559 40.8708 93.556 41.7709 94.6664 41.7709H108.517C109.239 41.7709 109.734 42.7084 109.204 43.3415L109.198 43.3484L109.192 43.3552C108.045 44.7651 106.831 46.2934 105.551 47.9399L105.548 47.9439C104.299 49.5647 103.033 51.2596 101.751 53.0284C100.47 54.7964 99.2228 56.5645 98.0088 58.333Z" fill="#448BFF" stroke="#448BFF" stroke-width="2.5"/>
<path d="M125.643 31.4505L125.665 31.4747L125.689 31.4977C126.325 32.119 127.13 32.4034 128 32.4034C128.87 32.4034 129.675 32.119 130.311 31.4977L130.335 31.4747L130.357 31.4505C130.967 30.7879 131.25 29.9661 131.25 29.0767C131.25 28.2003 130.974 27.3776 130.335 26.7402C129.712 26.0768 128.901 25.75 128 25.75C127.099 25.75 126.288 26.0768 125.665 26.7402C125.026 27.3776 124.75 28.2003 124.75 29.0767C124.75 29.9661 125.033 30.7879 125.643 31.4505ZM128 71.25C129.277 71.25 130.312 70.2146 130.312 68.9375V39.7287C130.312 38.4515 129.277 37.4162 128 37.4162C126.723 37.4162 125.688 38.4515 125.688 39.7287V68.9375C125.688 70.2147 126.723 71.25 128 71.25Z" fill="#448BFF" stroke="#448BFF" stroke-width="2.5"/>
</svg>
