<svg width="97" height="61" viewBox="0 0 97 61" fill="none" xmlns="http://www.w3.org/2000/svg">
<path d="M21.0786 0.250335L21.0815 0.250307C21.4983 0.246228 21.9155 0.282833 22.3263 0.360104C22.4604 0.385334 22.5897 0.29834 22.6173 0.165255C23.293 0.318996 23.9489 0.580005 24.5573 0.948291C24.4847 1.06314 24.5171 1.21548 24.6311 1.29058C24.9735 1.51622 25.2986 1.77865 25.6008 2.07795L26.4976 2.96603C26.5957 3.06318 26.754 3.06242 26.8511 2.96431L28.2894 4.38863C28.1922 4.48674 28.193 4.64502 28.2911 4.74218L29.1878 5.63026C29.3844 5.82492 29.5652 6.02914 29.7302 6.24136C29.7368 6.24987 29.744 6.25795 29.7516 6.26554L30.4357 6.94296C30.5338 7.04012 30.6921 7.03935 30.7892 6.94125L31.8021 7.94427C31.7049 8.04238 31.7057 8.20067 31.8038 8.29782L33.1719 9.65268C33.27 9.74983 33.4283 9.74906 33.5254 9.65096L34.5382 10.654C34.4411 10.7521 34.4419 10.9104 34.54 11.0075L35.224 11.685C35.2289 11.6898 35.234 11.6945 35.2393 11.6989C35.2405 11.6999 35.2418 11.7009 35.243 11.7019C35.4094 11.8362 35.5706 11.9801 35.7258 12.1337L36.6225 13.0218C36.7206 13.119 36.8789 13.1182 36.9761 13.0201L38.4143 14.4444C38.3172 14.5425 38.3179 14.7008 38.416 14.798L39.3128 15.686C39.5097 15.881 39.6907 16.0856 39.8559 16.2982C39.9397 16.4059 40.0941 16.4264 40.2029 16.345C40.4395 16.675 40.6413 17.022 40.8082 17.3809C40.6839 17.4357 40.6259 17.5803 40.6786 17.7061C40.8909 18.2136 41.0327 18.7433 41.1038 19.2806C41.1217 19.4158 41.2447 19.5115 41.3797 19.4962C41.4169 19.8953 41.4169 20.2971 41.3797 20.6962C41.2447 20.6809 41.1217 20.7765 41.1038 20.9118C41.0327 21.449 40.8909 21.9787 40.6786 22.4862C40.6259 22.6121 40.6839 22.7566 40.8082 22.8114C40.6413 23.1704 40.4395 23.5173 40.2029 23.8473C40.0941 23.766 39.9397 23.7865 39.8559 23.8942C39.6907 24.1068 39.5097 24.3113 39.3128 24.5063L38.5086 25.3027C38.4105 25.3998 38.4098 25.5581 38.5069 25.6562L37.2539 26.8971C37.1567 26.799 36.9984 26.7983 36.9003 26.8954L35.292 28.4882C35.1939 28.5853 35.1932 28.7436 35.2903 28.8417L34.0373 30.0826C33.9401 29.9845 33.7818 29.9837 33.6837 30.0809L32.0754 31.6736C31.9773 31.7708 31.9766 31.9291 32.0737 32.0272L30.8207 33.2681C30.7235 33.17 30.5652 33.1692 30.4671 33.2664L29.663 34.0627C29.6554 34.0703 29.6482 34.0783 29.6416 34.0868C29.4771 34.2981 29.297 34.5015 29.1013 34.6954L28.2045 35.5834C28.1064 35.6806 28.1056 35.8389 28.2028 35.937L26.7646 37.3613C26.6674 37.2632 26.5091 37.2624 26.411 37.3596L25.5143 38.2477C25.2151 38.5439 24.8936 38.804 24.5551 39.0281C24.4413 39.1034 24.4091 39.2558 24.482 39.3705C23.882 39.7354 23.2355 39.9957 22.5691 40.1515C22.5407 40.0186 22.411 39.9324 22.277 39.9584C21.8707 40.0373 21.4581 40.0764 21.0455 40.0756L21.0426 40.0756C20.6258 40.0797 20.2087 40.0431 19.7978 39.9658C19.6637 39.9405 19.5344 40.0275 19.5069 40.1606C18.8311 40.0069 18.1753 39.7459 17.567 39.3776C17.6396 39.2627 17.6072 39.1104 17.4932 39.0353C17.1508 38.8097 16.8257 38.5473 16.5235 38.248L15.6268 37.3599C15.5287 37.2627 15.3704 37.2635 15.2732 37.3616L13.835 35.9373C13.9322 35.8392 13.9314 35.6809 13.8333 35.5837L12.9365 34.6957C12.74 34.501 12.5592 34.2968 12.3942 34.0846C12.3875 34.0761 12.3804 34.068 12.3727 34.0604L11.6887 33.383C11.5906 33.2858 11.4323 33.2866 11.3351 33.3847L10.3223 32.3817C10.4195 32.2836 10.4187 32.1253 10.3206 32.0281L8.95249 30.6732C8.85439 30.5761 8.6961 30.5769 8.59894 30.675L7.58612 29.6719C7.68327 29.5738 7.6825 29.4155 7.5844 29.3184L6.90035 28.641C6.89545 28.6361 6.89035 28.6315 6.88506 28.627C6.88384 28.626 6.88261 28.625 6.88137 28.624C6.71493 28.4898 6.55375 28.3458 6.3986 28.1922L5.50185 27.3041C5.40374 27.207 5.24545 27.2077 5.1483 27.3058L3.71006 25.8815C3.80722 25.7834 3.80645 25.6251 3.70834 25.528L2.81159 24.6399C2.61471 24.4449 2.43368 24.2404 2.26845 24.0278C2.1847 23.92 2.0303 23.8995 1.92147 23.9809C1.68483 23.6509 1.48306 23.304 1.31614 22.945C1.44044 22.8902 1.49846 22.7457 1.4458 22.6198C1.23347 22.1123 1.0917 21.5826 1.02056 21.0454C1.00264 20.9101 0.879701 20.8145 0.744701 20.8298C0.707496 20.4307 0.707496 20.0288 0.744701 19.6298C0.879701 19.645 1.00264 19.5494 1.02056 19.4142C1.0917 18.8769 1.23347 18.3472 1.4458 17.8397C1.49846 17.7138 1.44044 17.5693 1.31614 17.5145C1.48306 17.1556 1.68483 16.8086 1.92147 16.4786C2.0303 16.56 2.1847 16.5395 2.26845 16.4317C2.43368 16.2191 2.61471 16.0146 2.81159 15.8196L3.61574 15.0232C3.71385 14.9261 3.71462 14.7678 3.61746 14.6697L4.87049 13.4288C4.96765 13.5269 5.12594 13.5277 5.22404 13.4305L6.83234 11.8378C6.93044 11.7406 6.93121 11.5823 6.83406 11.4842L8.08709 10.2433C8.18424 10.3414 8.34253 10.3422 8.44064 10.245L10.0489 8.65229C10.147 8.55514 10.1478 8.39685 10.0507 8.29874L11.3037 7.05783C11.4008 7.15594 11.5591 7.15671 11.6572 7.05955L12.4614 6.26318C12.4681 6.25657 12.4744 6.24959 12.4802 6.24227C12.4811 6.24122 12.4819 6.24017 12.4827 6.23911C12.6472 6.0278 12.8273 5.82444 13.0231 5.63056L13.9199 4.74248C14.018 4.64533 14.0187 4.48704 13.9216 4.38893L15.3598 2.96462C15.457 3.06272 15.6153 3.06349 15.7134 2.96633L16.6101 2.07826C16.9092 1.78205 17.2308 1.52196 17.5692 1.2979C17.683 1.22257 17.7152 1.07016 17.6423 0.955459C18.2423 0.590606 18.8887 0.330282 19.555 0.174481C19.5834 0.307398 19.7132 0.393615 19.8472 0.367581C20.2534 0.288654 20.666 0.24956 21.0786 0.250335Z" stroke="#878787" stroke-width="0.5" stroke-linecap="round" stroke-linejoin="round" stroke-dasharray="2 2"/>
<path d="M21.0786 20.8949L21.0815 20.8948C21.4983 20.8908 21.9155 20.9274 22.3263 21.0046C22.4604 21.0299 22.5897 20.9429 22.6173 20.8098C23.293 20.9635 23.9489 21.2245 24.5573 21.5928C24.4847 21.7077 24.5171 21.86 24.6311 21.9351C24.9735 22.1608 25.2986 22.4232 25.6008 22.7225L26.4976 23.6106C26.5957 23.7077 26.754 23.7069 26.8511 23.6088L28.2894 25.0332C28.1922 25.1313 28.193 25.2896 28.2911 25.3867L29.1878 26.2748C29.3844 26.4695 29.5652 26.6737 29.7302 26.8859C29.7368 26.8944 29.744 26.9025 29.7516 26.9101L30.4357 27.5875C30.5338 27.6847 30.6921 27.6839 30.7892 27.5858L31.8021 28.5888C31.7049 28.6869 31.7057 28.8452 31.8038 28.9424L33.1719 30.2972C33.27 30.3944 33.4283 30.3936 33.5254 30.2955L34.5382 31.2985C34.4411 31.3966 34.4419 31.5549 34.54 31.6521L35.224 32.3295C35.2289 32.3344 35.234 32.339 35.2393 32.3434C35.2405 32.3445 35.2418 32.3455 35.243 32.3465C35.4094 32.4807 35.5706 32.6246 35.7258 32.7783L36.6225 33.6663C36.7206 33.7635 36.8789 33.7627 36.9761 33.6646L38.4143 35.0889C38.3172 35.187 38.3179 35.3453 38.416 35.4425L39.3128 36.3306C39.5097 36.5255 39.6907 36.7301 39.8559 36.9427C39.9397 37.0504 40.0941 37.0709 40.2029 36.9896C40.4395 37.3195 40.6413 37.6665 40.8082 38.0255C40.6839 38.0803 40.6259 38.2248 40.6786 38.3507C40.8909 38.8582 41.0327 39.3879 41.1038 39.9251C41.1217 40.0604 41.2447 40.156 41.3797 40.1407C41.4169 40.5398 41.4169 40.9416 41.3797 41.3407C41.2447 41.3254 41.1217 41.421 41.1038 41.5563C41.0327 42.0935 40.8909 42.6233 40.6786 43.1308C40.6259 43.2566 40.6839 43.4011 40.8082 43.456C40.6413 43.8149 40.4395 44.1619 40.2029 44.4918C40.0941 44.4105 39.9397 44.431 39.8559 44.5387C39.6907 44.7513 39.5097 44.9559 39.3128 45.1508L38.5086 45.9472C38.4105 46.0444 38.4098 46.2027 38.5069 46.3008L37.2539 47.5417C37.1567 47.4436 36.9984 47.4428 36.9003 47.54L35.292 49.1327C35.1939 49.2298 35.1932 49.3881 35.2903 49.4862L34.0373 50.7271C33.9401 50.629 33.7818 50.6283 33.6837 50.7254L32.0754 52.3182C31.9773 52.4153 31.9766 52.5736 32.0737 52.6717L30.8207 53.9126C30.7235 53.8145 30.5652 53.8137 30.4671 53.9109L29.663 54.7073C29.6554 54.7148 29.6482 54.7229 29.6416 54.7313C29.4771 54.9427 29.297 55.146 29.1013 55.3399L28.2045 56.228C28.1064 56.3251 28.1056 56.4834 28.2028 56.5815L26.7646 58.0058C26.6674 57.9077 26.5091 57.907 26.411 58.0041L25.5143 58.8922C25.2152 59.1884 24.8936 59.4485 24.5551 59.6726C24.4413 59.7479 24.4092 59.9003 24.4821 60.015C23.8821 60.3798 23.2357 60.6402 22.5694 60.796C22.541 60.663 22.4112 60.5768 22.2773 60.6029C21.871 60.6818 21.4584 60.7209 21.0459 60.7201L21.043 60.7201C20.6261 60.7242 20.209 60.6876 19.7981 60.6104C19.664 60.5851 19.5347 60.6721 19.5071 60.8052C18.8314 60.6515 18.1754 60.3905 17.5671 60.0222C17.6397 59.9073 17.6072 59.755 17.4933 59.6799C17.1509 59.4542 16.8258 59.1918 16.5235 58.8925L15.6268 58.0044C15.5287 57.9073 15.3704 57.908 15.2732 58.0061L13.835 56.5818C13.9322 56.4837 13.9314 56.3254 13.8333 56.2283L12.9365 55.3402C12.74 55.1455 12.5592 54.9413 12.3942 54.7291C12.3875 54.7206 12.3804 54.7125 12.3727 54.7049L11.6887 54.0275C11.5906 53.9303 11.4323 53.9311 11.3351 54.0292L10.3223 53.0262C10.4195 52.9281 10.4187 52.7698 10.3206 52.6726L8.95249 51.3178C8.85439 51.2206 8.6961 51.2214 8.59894 51.3195L7.58612 50.3165C7.68328 50.2184 7.68251 50.0601 7.5844 49.9629L6.90036 49.2855C6.89546 49.2806 6.89035 49.276 6.88506 49.2716C6.88384 49.2705 6.88261 49.2695 6.88137 49.2685C6.71493 49.1343 6.55375 48.9904 6.3986 48.8367L5.50185 47.9487C5.40374 47.8515 5.24545 47.8523 5.1483 47.9504L3.71006 46.5261C3.80722 46.4279 3.80645 46.2697 3.70834 46.1725L2.81159 45.2844C2.61471 45.0895 2.43368 44.8849 2.26845 44.6723C2.1847 44.5646 2.0303 44.5441 1.92147 44.6254C1.68483 44.2954 1.48306 43.9485 1.31614 43.5895C1.44044 43.5347 1.49846 43.3902 1.4458 43.2643C1.23347 42.7568 1.0917 42.2271 1.02056 41.6899C1.00264 41.5546 0.879701 41.459 0.744701 41.4743C0.707496 41.0752 0.707496 40.6734 0.744701 40.2743C0.879701 40.2896 1.00264 40.194 1.02056 40.0587C1.0917 39.5215 1.23347 38.9917 1.4458 38.4842C1.49846 38.3584 1.44044 38.2139 1.31614 38.159C1.48306 37.8001 1.68483 37.4531 1.92147 37.1232C2.0303 37.2045 2.1847 37.184 2.26845 37.0763C2.43368 36.8637 2.61471 36.6591 2.81159 36.4641L3.61574 35.6678C3.71385 35.5706 3.71462 35.4123 3.61746 35.3142L4.87049 34.0733C4.96765 34.1714 5.12594 34.1722 5.22404 34.075L6.83234 32.4823C6.93044 32.3851 6.93121 32.2269 6.83406 32.1287L8.08709 30.8878C8.18424 30.9859 8.34253 30.9867 8.44064 30.8896L10.0489 29.2968C10.147 29.1997 10.1478 29.0414 10.0507 28.9433L11.3037 27.7024C11.4008 27.8005 11.5591 27.8012 11.6572 27.7041L12.4614 26.9077C12.4681 26.9011 12.4744 26.8941 12.4802 26.8868C12.4811 26.8858 12.4819 26.8847 12.4827 26.8836C12.6472 26.6723 12.8273 26.469 13.0231 26.2751L13.9199 25.387C14.018 25.2899 14.0187 25.1316 13.9216 25.0335L15.3598 23.6091C15.457 23.7073 15.6153 23.708 15.7134 23.6109L16.6101 22.7228C16.9092 22.4266 17.2308 22.1665 17.5692 21.9424C17.683 21.8671 17.7152 21.7147 17.6423 21.6C18.2423 21.2351 18.8887 20.9748 19.555 20.819C19.5834 20.9519 19.7132 21.0381 19.8472 21.0121C20.2534 20.9332 20.666 20.8941 21.0786 20.8949Z" stroke="#878787" stroke-width="0.5" stroke-linecap="round" stroke-linejoin="round" stroke-dasharray="2 2"/>
<path d="M47.8793 10.2777L47.8823 10.2777C48.2991 10.2736 48.7162 10.3102 49.1271 10.3874C49.2612 10.4127 49.3905 10.3257 49.4181 10.1926C50.0938 10.3463 50.7497 10.6073 51.3581 10.9756C51.2855 11.0905 51.3179 11.2428 51.4319 11.3179C51.7743 11.5436 52.0994 11.806 52.4016 12.1053L53.2984 12.9934C53.3965 13.0905 53.5548 13.0898 53.6519 12.9917L55.0902 14.416C54.993 14.5141 54.9938 14.6724 55.0919 14.7695L55.9886 15.6576C56.1852 15.8523 56.366 16.0565 56.531 16.2687C56.5376 16.2772 56.5448 16.2853 56.5524 16.2929L57.2365 16.9703C57.3346 17.0675 57.4929 17.0667 57.59 16.9686L58.6028 17.9716C58.5057 18.0697 58.5065 18.228 58.6046 18.3252L59.9727 19.68C60.0708 19.7772 60.229 19.7764 60.3262 19.6783L61.339 20.6813C61.2419 20.7794 61.2426 20.9377 61.3407 21.0349L62.0248 21.7123C62.0297 21.7172 62.0348 21.7218 62.0401 21.7263C62.0413 21.7273 62.0425 21.7283 62.0438 21.7293C62.2102 21.8635 62.3714 22.0074 62.5266 22.1611L63.4233 23.0492C63.5214 23.1463 63.6797 23.1455 63.7769 23.0474L65.2151 24.4718C65.1179 24.5699 65.1187 24.7281 65.2168 24.8253L66.1136 25.7134C66.3104 25.9084 66.4915 26.1129 66.6567 26.3255C66.7404 26.4332 66.8948 26.4537 67.0037 26.3724C67.2403 26.7024 67.4421 27.0493 67.609 27.4083C67.4847 27.4631 67.4267 27.6076 67.4794 27.7335C67.6917 28.241 67.8334 28.7707 67.9046 29.3079C67.9225 29.4432 68.0455 29.5388 68.1805 29.5235C68.2177 29.9226 68.2177 30.3244 68.1805 30.7235C68.0455 30.7082 67.9225 30.8038 67.9046 30.9391C67.8334 31.4763 67.6917 32.0061 67.4794 32.5136C67.4267 32.6394 67.4847 32.7839 67.609 32.8388C67.4421 33.1977 67.2403 33.5447 67.0037 33.8747C66.8948 33.7933 66.7404 33.8138 66.6567 33.9215C66.4915 34.1341 66.3104 34.3387 66.1136 34.5337L65.3094 35.33C65.2113 35.4272 65.2105 35.5855 65.3077 35.6836L64.0547 36.9245C63.9575 36.8264 63.7992 36.8256 63.7011 36.9228L62.0928 38.5155C61.9947 38.6127 61.9939 38.7709 62.0911 38.8691L60.8381 40.11C60.7409 40.0119 60.5826 40.0111 60.4845 40.1082L58.8762 41.701C58.7781 41.7981 58.7773 41.9564 58.8745 42.0545L57.6215 43.2954C57.5243 43.1973 57.366 43.1966 57.2679 43.2937L56.4638 44.0901C56.4561 44.0976 56.449 44.1057 56.4424 44.1142C56.2779 44.3255 56.0978 44.5288 55.902 44.7227L55.0053 45.6108C54.9072 45.7079 54.9064 45.8662 55.0036 45.9643L53.5653 47.3887C53.4682 47.2906 53.3099 47.2898 53.2118 47.3869L52.315 48.275C52.0159 48.5712 51.6944 48.8313 51.3558 49.0554C51.242 49.1307 51.2099 49.2832 51.2828 49.3979C50.6828 49.7627 50.0363 50.0231 49.3699 50.1788C49.3415 50.0459 49.2118 49.9597 49.0778 49.9857C48.6715 50.0647 48.2589 50.1037 47.8463 50.1029L47.8434 50.103C47.4265 50.107 47.0094 50.0704 46.5986 49.9931C46.4645 49.9679 46.3352 50.0549 46.3076 50.188C45.6319 50.0342 44.9761 49.7732 44.3678 49.4049C44.4404 49.2901 44.4079 49.1377 44.294 49.0626C43.9516 48.837 43.6265 48.5746 43.3243 48.2753L42.4276 47.3872C42.3295 47.2901 42.1712 47.2909 42.074 47.389L40.6358 45.9646C40.7329 45.8665 40.7322 45.7082 40.6341 45.6111L39.7373 44.723C39.5407 44.5284 39.36 44.3241 39.1949 44.1119C39.1883 44.1034 39.1812 44.0953 39.1735 44.0877L38.4895 43.4103C38.3914 43.3132 38.2331 43.3139 38.1359 43.412L37.1231 42.409C37.2202 42.3109 37.2195 42.1526 37.1214 42.0554L35.7533 40.7006C35.6552 40.6034 35.4969 40.6042 35.3997 40.7023L34.3869 39.6993C34.4841 39.6012 34.4833 39.4429 34.3852 39.3457L33.7011 38.6683C33.6962 38.6634 33.6911 38.6588 33.6858 38.6544C33.6846 38.6533 33.6834 38.6523 33.6821 38.6513C33.5157 38.5171 33.3545 38.3732 33.1994 38.2195L32.3026 37.3315C32.2045 37.2343 32.0462 37.2351 31.9491 37.3332L30.5108 35.9089C30.608 35.8108 30.6072 35.6525 30.5091 35.5553L29.6124 34.6672C29.4155 34.4723 29.2345 34.2677 29.0692 34.0551C28.9855 33.9474 28.8311 33.9269 28.7223 34.0082C28.4856 33.6783 28.2838 33.3313 28.1169 32.9723C28.2412 32.9175 28.2992 32.773 28.2466 32.6471C28.0342 32.1396 27.8925 31.6099 27.8213 31.0727C27.8034 30.9374 27.6805 30.8418 27.5455 30.8571C27.5083 30.458 27.5083 30.0562 27.5455 29.6571C27.6805 29.6724 27.8034 29.5768 27.8213 29.4415C27.8925 28.9043 28.0342 28.3746 28.2466 27.867C28.2992 27.7412 28.2412 27.5967 28.1169 27.5419C28.2838 27.1829 28.4856 26.8359 28.7223 26.506C28.8311 26.5873 28.9855 26.5668 29.0692 26.4591C29.2345 26.2465 29.4155 26.0419 29.6124 25.847L30.4165 25.0506C30.5146 24.9534 30.5154 24.7951 30.4182 24.697L31.6713 23.4561C31.7684 23.5542 31.9267 23.555 32.0248 23.4579L33.6331 21.8651C33.7312 21.768 33.732 21.6097 33.6348 21.5116L34.8879 20.2707C34.985 20.3688 35.1433 20.3695 35.2414 20.2724L36.8497 18.6796C36.9478 18.5825 36.9486 18.4242 36.8514 18.3261L38.1045 17.0852C38.2016 17.1833 38.3599 17.1841 38.458 17.0869L39.2622 16.2905C39.2688 16.2839 39.2751 16.2769 39.281 16.2696C39.2819 16.2686 39.2827 16.2675 39.2835 16.2665C39.448 16.0551 39.6281 15.8518 39.8239 15.6579L40.7206 14.7698C40.8188 14.6727 40.8195 14.5144 40.7224 14.4163L42.1606 12.992C42.2578 13.0901 42.416 13.0908 42.5141 12.9937L43.4109 12.1056C43.71 11.8094 44.0315 11.5493 44.37 11.3252C44.4838 11.2499 44.516 11.0975 44.4431 10.9828C45.0431 10.6179 45.6895 10.3576 46.3558 10.2018C46.3842 10.3347 46.514 10.421 46.6479 10.3949C47.0542 10.316 47.4668 10.2769 47.8793 10.2777Z" stroke="#878787" stroke-width="0.5" stroke-linecap="round" stroke-linejoin="round" stroke-dasharray="2 2"/>
<path d="M16.3477 38.8007C18.9062 41.3592 23.0543 41.3592 25.6129 38.8007L39.4888 24.9248C42.0473 22.3663 42.0473 18.2181 39.4888 15.6596L35.9018 12.0726C35.7405 11.9114 35.573 11.7603 35.4 11.6194L25.6994 1.91888C23.1409 -0.639627 18.9928 -0.639628 16.4343 1.91888L12.8473 5.50588C10.2888 8.06439 10.2888 12.2126 12.8473 14.7711L18.3927 20.3165L12.7607 25.9485C10.2022 28.507 10.2022 32.6552 12.7607 35.2137L16.3477 38.8007Z" fill="#448BFF"/>
<path d="M16.3477 59.0507C18.9062 61.6092 23.0543 61.6092 25.6129 59.0507L39.4888 45.1748C42.0473 42.6163 42.0473 38.4681 39.4888 35.9096L35.9018 32.3226C35.7405 32.1614 35.573 32.0103 35.4 31.8694L25.6994 22.1689C23.1409 19.6104 18.9928 19.6104 16.4343 22.1689L12.8473 25.7559C10.2888 28.3144 10.2888 32.4626 12.8473 35.0211L18.3927 40.5665L12.7607 46.1985C10.2022 48.757 10.2022 52.9052 12.7607 55.4637L16.3477 59.0507Z" fill="#448BFF" fill-opacity="0.8"/>
<path d="M52.7359 19.0742L52.7549 19.0922L52.7749 19.1091C53.2692 19.5285 53.8718 19.7045 54.5 19.7045C55.1282 19.7045 55.7308 19.5285 56.2251 19.1091L56.2451 19.0922L56.2641 19.0742C56.7522 18.614 57 18.0164 57 17.3523C57 16.6955 56.7559 16.0957 56.2452 15.6525C55.7567 15.2013 55.1478 15 54.5 15C53.8522 15 53.2433 15.2013 52.7548 15.6525C52.2441 16.0957 52 16.6955 52 17.3523C52 18.0164 52.2478 18.614 52.7359 19.0742ZM54.5 45C55.4924 45 56.2969 44.1955 56.2969 43.2031V24.3935C56.2969 23.4011 55.4924 22.5966 54.5 22.5966C53.5076 22.5966 52.7031 23.4011 52.7031 24.3935V43.2031C52.7031 44.1955 53.5076 45 54.5 45Z" fill="white" stroke="white" stroke-width="2"/>
<path d="M68.6807 36.3343L68.6808 36.3343C69.5263 35.1921 70.3952 34.05 71.2873 32.9081C72.1801 31.7655 73.0617 30.6706 73.9321 29.6234L73.9347 29.6203C74.8259 28.5571 75.6711 27.57 76.4703 26.6593L76.4751 26.6539L76.4799 26.6485C76.5851 26.5321 76.6102 26.3734 76.5418 26.2137C76.4747 26.0571 76.3549 25.9812 76.2133 25.9812H66.404C65.5808 25.9812 64.9134 25.3139 64.9134 24.4906C64.9134 23.6674 65.5808 23 66.404 23H80.2815C81.1937 23 81.9331 23.7394 81.9331 24.6516C81.9331 25.0938 81.7559 25.513 81.4492 25.821C80.9255 26.347 80.3252 26.9816 79.6473 27.7265C78.9074 28.5652 78.1087 29.4907 77.2512 30.5033C76.4179 31.4955 75.5491 32.5553 74.645 33.6828C73.7637 34.8108 72.8939 35.9483 72.0358 37.0954C71.1785 38.2414 70.3562 39.3679 69.569 40.4748C69.1296 41.119 69.5728 42.0188 70.4231 42.0188H80.7926C81.6158 42.0188 82.2832 42.6861 82.2832 43.5094C82.2832 44.3326 81.6158 45 80.7926 45H66.002C65.0527 45 64.2832 44.2305 64.2832 43.2812C64.2832 42.9619 64.3721 42.6467 64.5435 42.3726M68.6807 36.3343L64.5435 42.3726M68.6807 36.3343L68.6776 36.3386C67.8549 37.4625 67.0784 38.5583 66.3483 39.626C65.6668 40.6227 65.0649 41.5385 64.5435 42.3726M68.6807 36.3343L64.5435 42.3726" fill="white" stroke="white" stroke-width="2"/>
<path d="M91.0191 19.0742L91.0381 19.0922L91.0581 19.1091C91.5524 19.5285 92.155 19.7045 92.7832 19.7045C93.4114 19.7045 94.014 19.5285 94.5083 19.1091L94.5283 19.0922L94.5473 19.0742C95.0354 18.614 95.2832 18.0164 95.2832 17.3523C95.2832 16.6955 95.0391 16.0957 94.5284 15.6525C94.0399 15.2013 93.431 15 92.7832 15C92.1354 15 91.5265 15.2013 91.038 15.6525C90.5274 16.0957 90.2832 16.6955 90.2832 17.3523C90.2832 18.0164 90.531 18.614 91.0191 19.0742ZM92.7832 45C93.7756 45 94.5801 44.1955 94.5801 43.2031V24.3935C94.5801 23.4011 93.7756 22.5966 92.7832 22.5966C91.7908 22.5966 90.9863 23.4011 90.9863 24.3935V43.2031C90.9863 44.1955 91.7908 45 92.7832 45Z" fill="white" stroke="white" stroke-width="2"/>
</svg>
